<?xml version="1.0" encoding="iso-8859-1"?>
<!-- Generator: Adobe Illustrator 19.0.0, SVG Export Plug-In . SVG Version: 6.00 Build 0)  -->
<svg version="1.1" id="Layer_1" xmlns="http://www.w3.org/2000/svg" xmlns:xlink="http://www.w3.org/1999/xlink" x="0px" y="0px"
	 viewBox="0 0 512 512" style="enable-background:new 0 0 512 512;" xml:space="preserve">
<path style="fill:#B0DACC;" d="M266.633,220.477c7.975-7.975,21.52-1.27,20.014,9.908l-16.206,120.249
	c-0.709,5.26-4.847,9.398-10.107,10.107l-120.249,16.206c-11.178,1.506-17.884-12.039-9.908-20.014"/>
<g>
	<path style="fill:#211E48;" d="M138.356,390.693c-9.602,0-18.239-5.301-22.621-14.152c-4.916-9.932-3.03-21.411,4.806-29.247
		c5.322-5.322,13.953-5.322,19.277,0c4.214,4.214,5.092,10.503,2.632,15.58l114.672-15.453l15.453-114.673
		c-5.077,2.46-11.366,1.584-15.582-2.633c-5.322-5.322-5.322-13.953,0-19.275c7.837-7.836,19.319-9.721,29.248-4.805
		c9.931,4.916,15.391,15.19,13.911,26.172L283.95,352.453c-1.524,11.307-10.485,20.27-21.794,21.794l-120.249,16.206
		C140.714,390.613,139.527,390.693,138.356,390.693z"/>
	<path style="fill:#211E48;" d="M444.083,362.973c-5.621,0-10.883-3.504-12.857-9.107c-2.5-7.1,1.229-14.882,8.329-17.383
		c27.027-9.515,45.186-35.071,45.186-63.593c0-32.345-23.107-60.182-54.94-66.192c-3.707-0.701-6.958-2.906-8.981-6.091
		c-2.021-3.185-2.632-7.067-1.686-10.72c2.415-9.331,3.641-18.996,3.641-28.726c0-62.993-51.248-114.241-114.24-114.241
		c-39.315,0-75.392,19.845-96.507,53.087c-3.641,5.731-10.946,7.909-17.13,5.107c-9.741-4.413-20.116-6.651-30.835-6.651
		c-41.266,0-74.839,33.573-74.839,74.84c0,5.744,0.677,11.534,2.013,17.208c0.84,3.572,0.204,7.33-1.761,10.428
		c-1.965,3.098-5.099,5.271-8.689,6.03c-31.015,6.55-53.527,34.276-53.527,65.921c0,25.992,15.316,49.964,39.019,61.071
		c6.816,3.193,9.753,11.309,6.56,18.125c-3.193,6.816-11.307,9.755-18.125,6.56C21.477,343.071,0,309.409,0,272.889
		c0-40.028,25.628-75.587,62.524-88.988c-0.371-3.53-0.557-7.071-0.557-10.603c0-56.298,45.802-102.1,102.098-102.1
		c10.757,0,21.261,1.653,31.357,4.924c26.687-35.555,68.19-56.466,113.114-56.466c78.024,0,141.499,63.477,141.499,141.501
		c0,7.492-0.589,14.957-1.756,22.315C485.904,196.485,512,232.14,512,272.888c0,40.066-25.475,75.956-63.391,89.307
		C447.113,362.722,445.583,362.973,444.083,362.973z"/>
	<path style="fill:#211E48;" d="M236.255,492.342c-7.242,0-14.05-2.82-19.168-7.941l-99.19-99.188
		c-10.569-10.57-10.569-27.767,0-38.337l138.679-138.681c5.121-5.119,11.927-7.939,19.168-7.939c7.242,0,14.05,2.82,19.168,7.941
		l99.19,99.188c5.119,5.119,7.939,11.926,7.939,19.168c0,7.242-2.82,14.048-7.941,19.168l-13.255,13.255
		c-5.322,5.322-13.953,5.324-19.275,0c-5.322-5.324-5.324-13.953,0-19.275l13.147-13.147l-98.974-98.974L137.278,366.044
		l98.974,98.974l86.894-86.896c5.322-5.322,13.953-5.322,19.277,0c5.322,5.322,5.322,13.953,0,19.277l-87.001,87.002
		C250.303,489.522,243.495,492.342,236.255,492.342z"/>
</g>
<g>
</g>
<g>
</g>
<g>
</g>
<g>
</g>
<g>
</g>
<g>
</g>
<g>
</g>
<g>
</g>
<g>
</g>
<g>
</g>
<g>
</g>
<g>
</g>
<g>
</g>
<g>
</g>
<g>
</g>
</svg>
